<?xml version="1.0" encoding="UTF-8"?>
<!DOCTYPE svg PUBLIC "-//W3C//DTD SVG 1.1//EN" "http://www.w3.org/Graphics/SVG/1.1/DTD/svg11.dtd">
<svg xmlns="http://www.w3.org/2000/svg" version="1.1" width="2048px" height="2048px" style="shape-rendering:geometricPrecision; text-rendering:geometricPrecision; image-rendering:optimizeQuality; fill-rule:evenodd; clip-rule:evenodd" xmlns:xlink="http://www.w3.org/1999/xlink">
<g><path style="opacity:0.979" fill="#fefffe" d="M 529.5,386.5 C 647.451,380.878 752.451,414.378 844.5,487C 901.285,534.112 951.451,587.279 995,646.5C 1071.35,590.736 1149.51,537.57 1229.5,487C 1280.72,454.888 1334.39,427.221 1390.5,404C 1436.18,386.423 1483.18,381.756 1531.5,390C 1670.6,410.579 1777.77,479.746 1853,597.5C 1921.04,713.79 1935.37,836.457 1896,965.5C 1852.45,1091.06 1769.95,1180.89 1648.5,1235C 1579.2,1264.77 1507.2,1274.77 1432.5,1265C 1384.47,1254.32 1338.8,1237.32 1295.5,1214C 1193.45,1159.46 1107.45,1085.96 1037.5,993.5C 949.05,1055.9 859.05,1116.07 767.5,1174C 728.784,1198.03 688.784,1220.03 647.5,1240C 619.273,1254.08 589.606,1263.74 558.5,1269C 425.678,1270.08 313.845,1222.58 223,1126.5C 125.038,1014.02 89.7048,884.023 117,736.5C 150.204,596.174 231.037,493.674 359.5,429C 413.528,403.826 470.195,389.66 529.5,386.5 Z M 527.5,439.5 C 626.612,433.717 716.279,459.55 796.5,517C 832.506,544.668 865.672,575.502 896,609.5C 915.446,631.441 933.946,654.108 951.5,677.5C 923.806,697.694 895.973,717.694 868,737.5C 817.897,682.361 761.064,635.861 697.5,598C 667.331,580.61 634.998,569.61 600.5,565C 515.139,558.889 441.973,585.389 381,644.5C 313.12,719.514 292.12,806.18 318,904.5C 347.167,992.333 405.667,1050.83 493.5,1080C 524.586,1089.61 556.253,1092.61 588.5,1089C 618.686,1082.38 647.686,1072.38 675.5,1059C 731.563,1032.14 785.896,1002.48 838.5,970C 950.034,900.457 1061.03,830.123 1171.5,759C 1225.85,725.153 1281.18,692.819 1337.5,662C 1364.34,647.745 1392.01,635.412 1420.5,625C 1431.95,621.387 1443.61,618.887 1455.5,617.5C 1536.13,621.042 1597.29,657.042 1639,725.5C 1675.47,796.906 1674.13,867.572 1635,937.5C 1588.41,1008.21 1522.58,1041.38 1437.5,1037C 1409.17,1032.44 1382.5,1023.11 1357.5,1009C 1319.04,986.217 1283.7,959.217 1251.5,928C 1235.8,911.968 1220.47,895.635 1205.5,879C 1244.66,852.583 1284.66,827.416 1325.5,803.5C 1318.29,860.564 1337.96,905.731 1384.5,939C 1429.58,965.087 1475.25,966.087 1521.5,942C 1572.34,908.793 1593.18,861.96 1584,801.5C 1570.4,746.231 1535.9,712.064 1480.5,699C 1463.82,695.887 1447.15,695.887 1430.5,699C 1407.97,704.288 1386.3,711.954 1365.5,722C 1335.7,736.395 1306.7,752.062 1278.5,769C 1231.3,798.211 1184.63,828.211 1138.5,859C 1025.7,937.903 912.034,1015.57 797.5,1092C 745.319,1126.46 691.319,1158.12 635.5,1187C 610.325,1199.84 583.991,1209.5 556.5,1216C 441.041,1216.67 343.541,1175.5 264,1092.5C 180.511,997.998 147.845,887.998 166,762.5C 191.686,634.201 262.186,539.701 377.5,479C 425.056,456.112 475.056,442.946 527.5,439.5 Z M 1463.5,439.5 C 1592.84,438.765 1698.67,487.765 1781,586.5C 1861.34,693.572 1883.68,811.905 1848,941.5C 1815.09,1043.73 1751.59,1120.56 1657.5,1172C 1593.88,1205.52 1526.22,1219.86 1454.5,1215C 1416.11,1208.2 1379.44,1196.2 1344.5,1179C 1239.63,1128.05 1151.96,1056.05 1081.5,963C 1107.91,944.71 1134.41,926.543 1161,908.5C 1209.71,967.909 1266.88,1017.08 1332.5,1056C 1414.4,1101.74 1497.06,1103.08 1580.5,1060C 1642.63,1024.93 1684.8,973.431 1707,905.5C 1731.93,814.486 1715.26,732.153 1657,658.5C 1596.3,589.704 1520.14,559.537 1428.5,568C 1388.7,578.901 1350.7,594.234 1314.5,614C 1260.22,643.472 1206.88,674.472 1154.5,707C 1064.9,763.605 975.565,820.605 886.5,878C 830.157,913.511 772.824,947.511 714.5,980C 677.628,1000.62 639.295,1017.95 599.5,1032C 589.187,1035.06 578.687,1037.23 568,1038.5C 496.114,1035.4 439.114,1005.07 397,947.5C 358.297,888.239 349.963,824.906 372,757.5C 396.32,695.18 439.82,652.346 502.5,629C 528.898,620.864 555.898,616.697 583.5,616.5C 606.904,618.133 629.237,623.966 650.5,634C 676.328,646.404 700.661,661.071 723.5,678C 759.25,705.403 792.917,735.403 824.5,768C 782.612,797.865 739.779,826.365 696,853.5C 703.904,791.485 681.404,744.318 628.5,712C 584.117,690.43 540.45,691.763 497.5,716C 452.845,746.148 432.345,788.315 436,842.5C 443.07,892.163 469.237,927.663 514.5,949C 539.413,958.858 565.08,961.525 591.5,957C 612.501,952.334 632.834,945.667 652.5,937C 705.444,910.54 756.11,880.54 804.5,847C 909.518,773.158 1014.18,698.825 1118.5,624C 1168.48,589.672 1219.15,556.339 1270.5,524C 1307.79,501.854 1346.12,481.521 1385.5,463C 1410.6,451.732 1436.6,443.898 1463.5,439.5 Z M 559.5,749.5 C 596.62,748.961 623.12,765.294 639,798.5C 651.685,838.441 641.185,870.608 607.5,895C 570.742,914.111 537.575,909.277 508,880.5C 486.622,853.995 482.622,824.995 496,793.5C 509.878,768.311 531.045,753.644 559.5,749.5 Z M 1448.5,749.5 C 1485.62,748.961 1512.12,765.294 1528,798.5C 1540.69,838.441 1530.19,870.608 1496.5,895C 1459.74,914.111 1426.58,909.277 1397,880.5C 1375.23,853.172 1371.56,823.505 1386,791.5C 1400.21,767.644 1421.05,753.644 1448.5,749.5 Z"/></g>
<g><path style="opacity:0.966" fill="#fefffe" d="M 1667.5,1328.5 C 1706.83,1328.33 1746.17,1328.5 1785.5,1329C 1788.17,1333.33 1788.17,1337.67 1785.5,1342C 1307.83,1342.33 830.167,1342.67 352.5,1343C 346,1343.5 342.5,1347 342,1353.5C 340.613,1437.16 339.946,1520.83 340,1604.5C 340.073,1610.64 341.907,1616.14 345.5,1621C 353.833,1621.33 362.167,1621.67 370.5,1622C 373.968,1626.03 374.301,1630.37 371.5,1635C 338.159,1635.22 304.825,1635.72 271.5,1636.5C 268.911,1636.47 266.411,1636.14 264,1635.5C 263.204,1631.25 263.371,1627.08 264.5,1623C 273.56,1622.88 282.56,1622.22 291.5,1621C 295.816,1618.87 297.983,1615.37 298,1610.5C 298.439,1525.16 298.772,1439.83 299,1354.5C 298.476,1350.24 296.809,1346.57 294,1343.5C 285.535,1342.71 277.035,1342.21 268.5,1342C 265.833,1338 265.833,1334 268.5,1330C 735,1329.83 1201.33,1329.33 1667.5,1328.5 Z"/></g>
<g><path style="opacity:0.957" fill="#fefffe" d="M 1687.5,1359.5 C 1689.02,1359.51 1690.18,1360.18 1691,1361.5C 1720.47,1441.58 1750.14,1521.58 1780,1601.5C 1782.95,1608.58 1786.78,1615.08 1791.5,1621C 1797.17,1621.33 1802.83,1621.67 1808.5,1622C 1812.1,1625.99 1812.44,1630.32 1809.5,1635C 1775.49,1635.43 1741.49,1635.76 1707.5,1636C 1707,1635.5 1706.5,1635 1706,1634.5C 1705.21,1630.58 1705.37,1626.74 1706.5,1623C 1715.5,1622.67 1724.5,1622.33 1733.5,1622C 1736.95,1621.29 1738.62,1619.12 1738.5,1615.5C 1728.14,1582.06 1717.47,1548.73 1706.5,1515.5C 1682.93,1515.17 1659.43,1515.51 1636,1516.5C 1625.04,1549.19 1615.87,1582.36 1608.5,1616C 1608.6,1617.56 1608.94,1619.06 1609.5,1620.5C 1620.25,1621.04 1630.91,1621.88 1641.5,1623C 1644.27,1627.25 1643.94,1631.25 1640.5,1635C 1608.15,1635.42 1575.82,1635.75 1543.5,1636C 1542.33,1635.5 1541.5,1634.67 1541,1633.5C 1539.98,1629.68 1540.48,1626.18 1542.5,1623C 1551.56,1622.88 1560.56,1622.22 1569.5,1621C 1572.33,1619.5 1574.5,1617.33 1576,1614.5C 1598.36,1562.77 1618.36,1510.1 1636,1456.5C 1644.65,1434.7 1653.15,1412.86 1661.5,1391C 1660.91,1387.35 1659.57,1384.02 1657.5,1381C 1658.17,1380 1658.83,1379 1659.5,1378C 1665.11,1377.68 1670.44,1376.35 1675.5,1374C 1679.89,1369.33 1683.89,1364.5 1687.5,1359.5 Z M 1671.5,1414.5 C 1681.4,1442.21 1690.74,1470.21 1699.5,1498.5C 1680.16,1498.67 1660.83,1498.5 1641.5,1498C 1651.4,1470.12 1661.4,1442.29 1671.5,1414.5 Z"/></g>
<g><path style="opacity:0.963" fill="#fefffe" d="M 904.5,1361.5 C 907.505,1361.25 910.005,1362.25 912,1364.5C 911.953,1384.8 913.453,1404.97 916.5,1425C 916.18,1426.65 915.18,1427.65 913.5,1428C 909.495,1429.1 905.995,1428.26 903,1425.5C 901.066,1418.36 898.732,1411.36 896,1404.5C 894.167,1401.33 891.667,1398.83 888.5,1397C 867.899,1391.41 846.899,1388.57 825.5,1388.5C 820.395,1388.32 815.562,1389.32 811,1391.5C 809.25,1394.25 808.25,1397.25 808,1400.5C 807.5,1433.5 807.333,1466.5 807.5,1499.5C 831.944,1499.1 856.277,1497.27 880.5,1494C 882.171,1485.81 884.004,1477.65 886,1469.5C 889.409,1468.38 892.909,1468.21 896.5,1469C 897.131,1470.91 897.464,1472.91 897.5,1475C 896.583,1497.74 896.249,1520.41 896.5,1543C 892.789,1543.83 889.122,1543.66 885.5,1542.5C 884.066,1534.15 882.066,1525.99 879.5,1518C 855.592,1515.02 831.592,1513.19 807.5,1512.5C 807.333,1541.17 807.5,1569.84 808,1598.5C 808.303,1602.89 808.97,1607.23 810,1611.5C 810.606,1614.55 812.106,1617.05 814.5,1619C 822.833,1619.33 831.167,1619.67 839.5,1620C 841.785,1624.77 841.952,1629.61 840,1634.5C 804.559,1635.42 769.059,1635.92 733.5,1636C 730.132,1632.09 729.798,1627.92 732.5,1623.5C 741.862,1622.85 751.196,1622.02 760.5,1621C 763.553,1618.95 765.386,1616.12 766,1612.5C 766.667,1542.83 766.667,1473.17 766,1403.5C 765.422,1399.28 764.589,1395.11 763.5,1391C 762.899,1389.39 761.899,1388.06 760.5,1387C 752.167,1386.67 743.833,1386.33 735.5,1386C 732.082,1382.08 731.749,1377.91 734.5,1373.5C 789.786,1373.39 845.12,1373.39 900.5,1373.5C 900.335,1370.15 900.502,1366.82 901,1363.5C 902.302,1362.92 903.469,1362.25 904.5,1361.5 Z"/></g>
<g><path style="opacity:0.963" fill="#fefffe" d="M 406.5,1372.5 C 430.156,1373.22 453.823,1373.72 477.5,1374C 532.094,1441.26 585.928,1509.09 639,1577.5C 639.005,1541.84 638.671,1506.17 638,1470.5C 637.863,1445.09 636.53,1419.76 634,1394.5C 633.394,1391.45 631.894,1388.95 629.5,1387C 621.833,1386.67 614.167,1386.33 606.5,1386C 603.633,1381.41 603.966,1377.08 607.5,1373C 633.829,1373.79 660.162,1373.63 686.5,1372.5C 697.67,1369.68 702.003,1373.68 699.5,1384.5C 690.146,1385.18 680.812,1386.02 671.5,1387C 667.951,1389.96 666.118,1393.8 666,1398.5C 663.114,1430.43 661.447,1462.43 661,1494.5C 659.957,1542.83 659.29,1591.16 659,1639.5C 658.626,1640.42 658.126,1641.25 657.5,1642C 653.833,1642.67 650.167,1642.67 646.5,1642C 584.931,1570.76 524.431,1498.59 465,1425.5C 464.798,1474.17 465.132,1522.83 466,1571.5C 466.185,1583.87 466.852,1596.2 468,1608.5C 468.362,1613.14 469.862,1617.3 472.5,1621C 480.882,1621.2 489.215,1621.7 497.5,1622.5C 500.062,1626.76 500.062,1630.92 497.5,1635C 468.823,1635.21 440.156,1635.71 411.5,1636.5C 409.571,1636.46 407.738,1636.13 406,1635.5C 403.889,1631.2 404.055,1627.04 406.5,1623C 414.876,1622.79 423.21,1622.12 431.5,1621C 434.428,1619.74 436.261,1617.57 437,1614.5C 442.463,1543.94 445.13,1473.28 445,1402.5C 434.908,1389.18 421.408,1383.51 404.5,1385.5C 403.975,1380.86 404.642,1376.53 406.5,1372.5 Z"/></g>
<g><path style="opacity:0.97" fill="#fefffe" d="M 949.5,1372.5 C 980.167,1373.71 1010.83,1373.71 1041.5,1372.5C 1046.92,1372.53 1052.08,1373.2 1057,1374.5C 1057.75,1377.89 1057.59,1381.23 1056.5,1384.5C 1049.19,1385.33 1041.86,1385.83 1034.5,1386C 1025.28,1386.89 1021.11,1392.06 1022,1401.5C 1021.05,1470.85 1021.38,1540.18 1023,1609.5C 1023.52,1613.71 1025.02,1617.55 1027.5,1621C 1036.17,1621.33 1044.83,1621.67 1053.5,1622C 1056.17,1626.33 1056.17,1630.67 1053.5,1635C 1018.15,1635.43 982.821,1635.76 947.5,1636C 945.226,1632.08 944.893,1627.92 946.5,1623.5C 955.862,1622.85 965.196,1622.02 974.5,1621C 977.663,1619.52 979.496,1617.02 980,1613.5C 980.667,1542.83 980.667,1472.17 980,1401.5C 979.333,1398.17 978.667,1394.83 978,1391.5C 977.215,1389.71 976.049,1388.21 974.5,1387C 966.167,1386.67 957.833,1386.33 949.5,1386C 947.941,1384 947.274,1381.67 947.5,1379C 947.658,1376.55 948.325,1374.38 949.5,1372.5 Z"/></g>
<g><path style="opacity:0.963" fill="#fefffe" d="M 1088.5,1372.5 C 1112.49,1373.23 1136.49,1373.73 1160.5,1374C 1214.6,1441.04 1268.1,1508.54 1321,1576.5C 1321.53,1534.49 1321.2,1492.49 1320,1450.5C 1319.77,1431.08 1318.44,1411.74 1316,1392.5C 1315.03,1390.7 1313.86,1389.03 1312.5,1387.5C 1304.55,1386.7 1296.55,1386.2 1288.5,1386C 1285.58,1381.09 1286.25,1376.76 1290.5,1373C 1320.73,1373.39 1350.9,1373.55 1381,1373.5C 1383.45,1377.38 1383.62,1381.21 1381.5,1385C 1372.46,1385.19 1363.46,1385.86 1354.5,1387C 1352.33,1387.83 1350.83,1389.33 1350,1391.5C 1349.12,1394.79 1348.45,1398.12 1348,1401.5C 1345.97,1425.46 1344.64,1449.46 1344,1473.5C 1342.44,1529.16 1341.44,1584.82 1341,1640.5C 1333.35,1644.29 1327.02,1642.62 1322,1635.5C 1263.29,1565.79 1204.96,1495.79 1147,1425.5C 1147.25,1481.5 1147.92,1537.5 1149,1593.5C 1148.96,1603.09 1150.79,1612.26 1154.5,1621C 1162.5,1621.33 1170.5,1621.67 1178.5,1622C 1179.42,1622.37 1180.25,1622.87 1181,1623.5C 1183.09,1627.47 1182.92,1631.31 1180.5,1635C 1151.82,1635.21 1123.16,1635.71 1094.5,1636.5C 1091.99,1636.71 1089.82,1636.05 1088,1634.5C 1087.24,1630.77 1087.41,1627.11 1088.5,1623.5C 1096.85,1622.79 1105.18,1621.96 1113.5,1621C 1117.23,1619.37 1119.4,1616.54 1120,1612.5C 1125.13,1542.59 1127.46,1472.59 1127,1402.5C 1117.36,1389.16 1104.2,1383.33 1087.5,1385C 1086.03,1380.69 1086.37,1376.52 1088.5,1372.5 Z"/></g>
<g><path style="opacity:0.97" fill="#fefffe" d="M 1417.5,1372.5 C 1453.4,1373.43 1489.23,1373.76 1525,1373.5C 1525.79,1377.42 1525.63,1381.26 1524.5,1385C 1515.45,1385.15 1506.45,1385.82 1497.5,1387C 1494.24,1388.59 1492.08,1391.09 1491,1394.5C 1490.33,1465.17 1490.33,1535.83 1491,1606.5C 1491.09,1612.07 1492.93,1616.9 1496.5,1621C 1504.83,1621.33 1513.17,1621.67 1521.5,1622C 1524.41,1626 1524.74,1630.17 1522.5,1634.5C 1489,1635.21 1455.5,1635.88 1422,1636.5C 1415.97,1637.97 1413.14,1635.64 1413.5,1629.5C 1413.75,1627.14 1414.09,1624.81 1414.5,1622.5C 1423.9,1622.89 1433.23,1622.39 1442.5,1621C 1446.88,1618.08 1449.05,1613.91 1449,1608.5C 1449.96,1539.15 1449.63,1469.82 1448,1400.5C 1447.7,1395.59 1446.2,1391.09 1443.5,1387C 1434.83,1386.67 1426.17,1386.33 1417.5,1386C 1414.86,1381.44 1414.86,1376.94 1417.5,1372.5 Z"/></g>
</svg>
